<svg width="94" height="103" viewBox="0 0 94 103" fill="none" xmlns="http://www.w3.org/2000/svg">
<path d="M93.9771 80.3302C93.9205 80.4016 93.8614 80.4754 93.8048 80.5468C85.1007 91.3807 72.7156 99.1294 58.5454 101.89C55.1229 102.557 51.5945 102.934 47.9873 102.99C47.9774 102.884 47.9676 102.781 47.9577 102.675C47.9553 102.636 47.9504 102.599 47.9479 102.559C47.9085 102.123 47.8716 101.675 47.8396 101.215C47.8199 100.912 47.8002 100.602 47.7805 100.287C47.5465 96.2067 47.581 91.2896 47.9257 85.4245C47.4899 84.8434 47.7755 84.218 47.911 83.6591C48.4133 81.5908 48.4674 79.4881 48.6029 77.3779C48.7309 75.3244 48.7801 73.266 48.9697 71.2149C49.0337 70.5181 49.115 69.8213 49.2209 69.1269C49.4351 67.7185 49.2997 66.2756 49.3243 64.8426C49.3243 64.6038 49.3317 64.3674 49.3465 64.1286C49.3612 64.0227 49.3908 63.9316 49.4277 63.8528C49.4351 63.8405 49.44 63.8282 49.4474 63.8183C49.6247 63.481 49.9916 63.3456 50.3535 63.1806C52.4292 62.2326 54.2709 60.9818 55.5932 59.0736C56.514 57.7464 57.265 56.3627 57.2059 54.676C57.1961 54.3682 57.2281 54.058 57.4078 53.7896C57.4177 53.7724 57.4275 53.7576 57.4398 53.7428C57.4472 53.7404 57.4546 53.7354 57.462 53.733C58.277 53.339 59.0526 53.7354 59.811 53.9152C64.3489 54.9936 68.6972 56.6039 72.9052 58.6181C73.7818 59.0366 74.5525 59.832 75.6605 59.6916C77.8149 61.6195 80.4348 62.8753 82.732 64.6038C85.5784 66.7484 88.1982 69.0555 90.2074 72.0545C91.3499 73.7584 92.3225 75.5411 93.0095 77.4247C93.1449 77.7916 93.2754 78.1609 93.401 78.5327C93.6078 79.1261 93.8023 79.7269 93.9771 80.3302Z" fill="#EDEFF1"/>
<path d="M44.6928 100.109V100.114C44.651 100.479 44.6091 100.838 44.5623 101.188C44.5451 101.331 44.5254 101.466 44.5057 101.604C44.5057 101.604 44.5057 101.604 44.5057 101.606C44.4589 101.946 44.4072 102.279 44.353 102.606C44.3358 102.717 44.3161 102.83 44.2964 102.938C40.2731 102.761 36.3507 102.187 32.5687 101.252C20.7696 98.339 10.3445 91.9347 2.45546 83.1986C2.11321 82.8195 1.77588 82.4378 1.44594 82.0488C1.37946 81.9749 1.3179 81.901 1.25635 81.8272C1.13816 81.6918 1.0249 81.5563 0.911633 81.4184C0.756511 81.2338 0.603852 81.0466 0.44873 80.8595C0.874699 78.9513 1.42132 77.0603 2.08612 75.2234C2.49978 74.0859 2.95283 72.9212 3.268 71.7886C3.98944 69.1934 5.97647 67.8219 7.8527 66.2929C9.48517 64.9633 11.1595 63.6878 12.8141 62.3877C14.4023 61.8534 15.7294 60.8365 17.1649 60.024C22.1091 57.222 27.3635 55.2398 32.8839 53.9373C33.3911 53.8167 33.918 53.6246 34.4326 53.9447C34.4425 53.9546 34.4499 53.9644 34.4573 53.9743C34.472 53.989 34.4819 54.0038 34.4917 54.0186C34.5976 54.1589 34.6542 54.3214 34.6715 54.4938C35.1319 58.8741 37.9093 61.4152 41.6224 63.2028C42.0311 63.3997 42.4916 63.4958 42.7846 63.87C42.8043 63.8946 42.824 63.9217 42.8412 63.9513C42.8412 63.9537 42.8461 63.9537 42.8461 63.9562C42.9889 64.3945 43.0727 64.8377 43.1244 65.2858C43.2352 66.2633 43.2007 67.2556 43.3041 68.2307C43.3041 68.2356 43.3041 68.2405 43.3041 68.2454C43.3041 68.2602 43.3066 68.2774 43.309 68.2922C43.4888 69.9001 43.4888 71.5374 43.5282 73.1527C43.5971 76.0434 44.1487 78.8725 44.2964 81.7459C44.3407 82.6077 44.5032 83.4326 44.7396 84.255C44.8504 84.6366 45.0178 85.0379 44.7273 85.4245C45.168 91.1468 45.1336 96.0269 44.6904 100.109H44.6928Z" fill="#EDEFF1"/>
<path d="M46.9434 103H45.4685C44.1684 101.73 44.4171 99.2872 44.2792 97.31C43.6809 88.6528 43.2672 79.961 43.2303 71.2201C43.2229 69.7058 42.9939 68.1964 42.9915 66.6427C42.9915 65.0768 43.3189 64.2864 44.1906 64.2593C45.695 64.2519 47.197 64.1682 48.6989 63.9688C49.3244 64.2002 49.4204 65.0448 49.3933 65.9878C49.1988 72.6654 49.1692 79.3553 48.7285 86.0157C48.5217 89.1427 48.6029 92.3363 48.4207 95.4929C48.3099 97.4011 48.0883 99.2675 47.8495 101.129C47.7362 102.015 47.49 102.764 46.9409 103H46.9434Z" fill="#EDEFF1"/>
<path d="M46.9434 103C48.1055 100.676 48.0366 97.6939 48.1449 94.9116C48.4626 86.7197 49.1249 78.5623 48.955 70.3063C48.9255 68.8979 49.1815 67.4157 49.1545 65.9408C49.1421 65.2735 49.1914 64.5595 48.6669 64.4462C48.8614 63.2594 49.2505 63.5844 49.6543 64.0301C49.3613 77.0603 49.2874 90.1225 47.9258 102.998H46.9434V103Z" fill="#DCDEDF"/>
<path d="M44.2472 64.872C43.5405 64.7464 43.1933 65.1872 43.245 66.6029C43.5011 73.6228 43.6882 80.6525 43.9788 87.6699C44.1536 91.9001 44.518 96.1031 44.7027 100.331C44.7544 101.53 45.2173 102.113 45.466 103H44.7273C44.0182 99.1391 44.0083 95.0911 43.6759 91.1294C43.0727 83.9273 43.2992 76.6563 42.7772 69.4739C42.6467 67.6716 43.0185 65.7879 42.5039 64.0471C43.1958 63.5571 43.8335 63.4513 44.2447 64.8744L44.2472 64.872Z" fill="#DCDEDF"/>
<path d="M18.6817 52.0783C18.7014 48.2864 18.2089 44.5019 18.4354 40.7076C18.6226 37.588 18.657 34.424 19.2406 31.3733C19.9842 27.4977 21.2178 23.7206 23.0521 20.1725C23.5569 19.1975 24.0198 18.2027 24.6181 17.2818C24.8767 16.8829 24.7068 16.521 24.6649 16.1172C24.5787 15.2677 24.234 14.369 24.8939 13.5786C25.0613 13.7756 25.1327 14.0169 25.1204 14.2607C24.985 16.7968 26.583 18.2126 28.4912 19.3895C30.3576 20.5394 32.4358 21.1599 34.5755 21.5809C41.0438 22.8564 47.5195 23.4128 54.0198 21.7951C56.5929 21.1549 58.9418 20.0789 61.0101 18.3849C61.9852 17.5871 62.7312 16.654 63.3 15.5533C63.5241 15.12 63.6866 14.6472 64.1052 14.3419C64.6346 14.044 64.9546 14.3296 65.2132 14.7457C68.4067 19.8967 70.8493 25.2817 70.9157 31.5136C70.9404 33.9192 70.1746 36.1746 69.9481 38.5187C69.6674 41.4044 69.7117 44.3 69.9333 47.1907C70.0244 48.3677 70.1598 49.5372 70.6769 50.6206C71.258 52.4575 72.0705 54.1933 73.0111 55.8726C73.0801 56.3601 73.8778 56.8772 72.9569 57.3278C72.5975 57.2933 72.3759 57.052 72.1764 56.7886C70.5612 54.6587 69.2734 52.3516 68.5323 49.7761C67.673 46.7968 67.1313 43.751 66.7201 40.6781C66.4985 39.0185 66.0282 37.4107 65.223 35.9235C64.115 34.4363 62.8445 33.0796 61.7094 31.6146C61.3228 31.2034 61.0938 30.7011 60.8846 30.1865C60.1557 28.5885 59.4269 26.9954 58.8803 25.3161C58.277 23.4621 56.8095 22.7603 54.9062 23.2183C53.387 23.5852 52.0106 24.3411 50.5259 24.8138C46.1653 26.2025 41.8859 25.9243 37.6533 24.3435C36.6536 23.9693 35.6416 23.6393 34.6075 23.3956C33.0316 23.0238 31.6479 23.6861 30.9363 25.1265C30.4857 26.0425 30.2 27.0323 29.747 27.9483C29.5106 28.5811 29.3998 29.2631 28.9812 29.822C27.9274 31.5555 27.1469 33.444 25.9576 35.0986C24.0247 38.4054 21.5403 41.4291 20.5111 45.2061C19.9916 47.1169 19.1224 48.9611 19.2135 51.0195C19.2307 51.4159 19.3268 51.965 18.6817 52.0783Z" fill="#EDEFF1"/>
<path d="M64.1346 14.5267C62.6499 18.4342 59.4514 20.3671 55.7507 21.6376C50.5233 23.4326 45.1335 23.3267 39.7313 22.7506C36.0207 22.3541 32.3495 21.7361 28.9639 20.0618C27.1788 19.1803 25.5857 18.0624 24.9751 15.9966C24.7362 15.1865 24.751 14.3912 24.8987 13.5787C25.4724 13.2414 25.7211 12.9213 25.3937 12.1457C24.5786 10.2153 25.4109 7.90814 27.2576 6.41356C28.2228 5.63303 29.3456 5.1652 30.4757 4.7023C31.2932 4.4807 32.1156 3.97101 32.9084 4.75893L32.8863 4.74416C33.2778 5.32278 32.7829 5.64041 32.4849 5.97774C31.7783 6.77305 30.9436 7.4477 30.2763 8.27748C29.2003 9.61201 29.3899 10.7496 30.8623 11.6508C32.6893 12.7686 34.7773 13.1059 36.8382 13.3768C41.9646 14.0514 47.1082 14.2336 52.242 13.4383C53.7735 13.1995 55.3247 12.973 56.7183 12.2097C58.6611 11.146 59.0452 9.94688 58.1046 7.94507C57.755 7.19901 57.164 6.60561 56.7873 5.87925C56.5829 5.48529 56.2948 5.06917 56.5805 4.62104C56.8464 4.2 57.3191 4.37236 57.7131 4.35266C58.176 4.32804 58.5995 4.47331 58.9935 4.70968C60.6653 5.58378 62.3027 6.51944 63.0833 8.3612C63.5535 9.47167 63.5338 10.7422 64.1199 11.828C64.3045 12.7243 64.5114 13.623 64.1396 14.5242L64.1346 14.5267Z" fill="#191619"/>
<path d="M58.9887 4.70969C58.2402 4.69984 57.2873 3.94885 56.8096 4.66044C56.3319 5.37203 57.2873 6.01468 57.7034 6.62778C59.9145 9.88779 59.2891 11.8797 55.4997 13.0518C51.0898 14.4159 46.5297 14.3518 41.9795 14.1573C38.7047 14.017 35.4324 13.7683 32.2979 12.7021C28.607 11.4464 28.2352 9.76468 30.9339 7.01189C31.6282 6.30522 32.6796 5.87679 32.884 4.74416C33.6743 4.62597 34.0708 3.91931 34.6839 3.52781C37.4588 1.74761 40.4726 0.816877 43.7646 0.784867C46.2515 0.760245 48.7482 0.669143 51.1883 1.28963C52.8503 1.71067 54.4582 2.31885 55.7755 3.41947C56.4575 3.98825 57.0977 4.30834 57.9669 4.21724C58.3904 4.17292 58.7917 4.25171 58.9911 4.70969H58.9887Z" fill="#EDEFF1"/>
<path d="M18.6817 52.0782C18.7556 51.896 18.8836 51.7187 18.8935 51.5315C19.1249 46.8065 20.7869 42.5788 23.3649 38.6639C24.1898 37.413 24.9851 36.145 25.7927 34.8843C26.3885 34.5445 26.492 35.0788 26.6495 35.4063C26.9524 36.0342 27.307 36.6227 27.7748 37.1348C28.5676 38.004 28.9 37.9375 29.2817 36.8566C29.3235 36.7408 29.3925 36.6423 29.4885 36.5586C29.9342 36.5586 29.9834 36.928 30.077 37.221C31.0151 40.1634 32.5417 42.7857 34.3835 45.2454C34.807 45.8093 35.3881 46.3584 35.196 47.2005C34.8464 49.0201 35.1246 50.8594 35.0015 52.6839C34.967 53.1862 35.2058 53.8879 34.3638 54.043C31.4214 54.336 28.6686 55.3603 25.9232 56.3354C21.5872 57.8792 17.5122 59.9746 13.6538 62.4861C13.4371 62.6289 12.9792 63.242 12.8167 62.3802C14.0084 60.9866 14.8825 59.3886 15.7787 57.8078C16.835 55.9414 17.916 54.0849 18.6842 52.0732L18.6817 52.0782Z" fill="#B2B3B2"/>
<path d="M65.388 35.6206C67.0427 38.2232 67.0993 41.2444 67.5794 44.1449C68.355 48.8109 69.665 53.2429 72.7206 56.9904C72.7945 57.0815 72.9176 57.1308 73.0185 57.1997C74.0699 57.6897 74.4762 58.8691 75.4414 59.4527C75.5152 59.5315 75.5891 59.6103 75.663 59.6891C75.7147 59.8836 75.7664 60.0756 75.855 60.413C74.23 59.6374 72.7157 58.879 71.1743 58.1822C66.8137 56.205 62.3324 54.5922 57.5803 53.8289C56.7357 53.6886 56.9327 52.9844 56.9154 52.4771C56.8564 50.8028 56.8957 49.126 56.8884 47.4542C56.7923 46.8928 57.0115 46.4053 57.3045 45.9645C58.9665 43.4776 60.274 40.8233 61.1087 37.9474C61.1874 37.6766 61.2687 37.3934 61.5863 37.2876C61.6676 37.3097 61.7538 37.3417 61.7858 37.4107C62.4186 38.8018 62.4383 38.8018 63.5241 37.6717C63.8959 37.2851 64.1766 36.8444 64.445 36.3815C64.6543 36.0195 64.7749 35.4975 65.393 35.6231L65.388 35.6206Z" fill="#B2B2B2"/>
<path d="M64.1347 14.5267C64.1273 13.628 64.1199 12.7293 64.115 11.8306C65.351 15.2383 67.8404 18.0034 69.037 21.4432C69.5393 22.886 70.0835 24.3043 70.4454 25.7989C70.9206 27.7736 71.2727 29.7557 71.2752 31.7846C71.2777 33.5722 70.8566 35.3032 70.4627 37.0366C70.2411 38.0165 70.182 39.0359 70.049 40.038C69.8471 41.7567 69.8471 43.4753 70.049 45.194C70.1967 47.1072 70.1795 49.0474 71.0216 50.8399C70.8591 50.9335 70.699 50.8744 70.539 50.8375C69.8619 49.2665 69.5369 47.6144 69.5689 45.913C69.623 43.0617 69.1897 40.1686 69.8545 37.3739C70.3962 35.0889 70.6079 32.8187 70.5488 30.4968C70.4479 26.5277 69.3005 22.8664 67.4883 19.3478C66.7594 17.9369 65.9223 16.5901 65.2082 15.1743C64.9965 14.7557 64.8217 14.2017 64.1396 14.5243L64.1347 14.5267Z" fill="#DEDFE0"/>
<path d="M70.5366 50.8376C70.6991 50.5619 70.8592 50.8007 71.0192 50.8401C71.6865 52.3913 72.3562 53.9401 73.0235 55.4913C73.1565 55.7769 73.1762 56.0009 72.7576 55.9936C71.8564 54.3439 71.0094 52.6695 70.5391 50.8352L70.5366 50.8376Z" fill="#C9CAC9"/>
<path d="M72.7552 55.996C72.9644 55.8925 72.9964 55.6956 73.0211 55.4937C73.8139 56.8233 74.8013 58.0322 75.439 59.4554C74.1242 59.2461 73.7918 57.9904 73.0161 57.2025C73.4421 56.6878 72.8216 56.4022 72.7527 55.996H72.7552Z" fill="#EDEFF1"/>
<path d="M70.0465 45.194C69.6599 43.4754 69.6599 41.7567 70.0465 40.0381C70.0465 41.7567 70.0465 43.4754 70.0465 45.194Z" fill="#EDEFF1"/>
<path d="M32.9036 4.76156C32.1034 4.29127 31.281 4.70493 30.4709 4.70493C31.2958 4.09922 32.1157 3.80375 32.9036 4.76156Z" fill="#EDEFF1"/>
<path d="M56.9622 47.1171C57.4128 47.4421 57.2552 47.9247 57.2602 48.3482C57.2774 49.8058 57.2602 51.2635 57.27 52.7187C57.27 53.1102 57.1666 53.5435 57.5778 53.8291C58.0924 58.1405 53.5693 62.5701 49.9424 63.6363C49.834 63.6683 49.7503 63.7766 49.6568 63.8505C49.317 63.8849 48.9353 63.7397 48.6694 64.0819C47.2117 64.439 45.727 64.3035 44.2497 64.3183C43.7252 63.9588 43.0727 64.0721 42.5089 63.8603C39.1479 62.7425 36.7004 60.5831 35.0384 57.4683C34.4524 56.3677 34.3736 55.2326 34.3662 54.0507C34.7799 53.7577 34.6494 53.317 34.6518 52.9255C34.6641 51.3349 34.6568 49.7418 34.6568 48.1512C34.6568 47.6637 34.5878 47.1466 35.1664 46.893C35.7131 46.8093 35.9716 47.2131 36.2498 47.5529C37.9439 49.6187 39.9875 51.3053 42.0755 52.9427C42.7822 53.4967 43.5553 53.7577 44.4614 53.7233C45.4414 53.6839 46.4337 53.6223 47.4013 53.7356C49.1397 53.9375 50.4373 53.2062 51.7201 52.1499C53.3083 50.8424 54.6773 49.3479 56.0143 47.809C56.2728 47.511 56.4723 47.1097 56.9622 47.122V47.1171Z" fill="#DFBAA2"/>
<path d="M29.4934 27.973C29.8972 26.7025 30.3306 25.4394 30.9954 24.2821C31.5125 23.3834 33.241 22.7604 34.349 22.9722C35.9962 23.2898 37.5203 23.9891 39.111 24.4766C43.6932 25.8801 48.1548 25.6807 52.5474 23.6838C53.3797 23.3046 54.2636 22.9722 55.2091 22.8195C57.009 22.5315 58.3239 22.9993 58.9739 24.7007C59.683 26.5548 60.4463 28.3842 61.1801 30.226C60.7418 30.8071 60.6556 31.5039 60.5547 32.1884C59.9194 36.517 58.3608 40.5526 56.5904 44.5168C56.3738 44.9994 56.1374 45.5411 55.5169 45.583C54.7856 45.6322 54.6305 44.9724 54.3547 44.4898C54.2119 44.2411 54.1134 43.9702 54.01 43.7043C53.328 41.9118 52.0698 40.7151 50.1467 40.5379C48.0046 40.3384 45.8551 39.9666 43.6834 40.3753C40.8616 40.9097 39.7142 42.0103 39.1848 44.8074C39.1627 44.928 39.1479 45.0487 39.1233 45.1693C39.01 45.7455 38.85 46.3241 38.2295 46.5334C37.5327 46.7698 37.0599 46.2995 36.6364 45.8538C35.9051 45.0807 35.2526 44.2386 34.6986 43.3276C32.7411 40.1144 31.5346 36.613 30.6531 32.9812C30.2493 31.3143 29.9908 29.6153 29.491 27.973H29.4934Z" fill="#DFBAA2"/>
<path d="M29.4935 27.9728C30.3356 27.7832 30.0499 28.5293 30.1066 28.8248C30.7271 32.1168 31.4657 35.3743 32.6969 38.4989C33.7335 41.1311 34.9991 43.6376 36.9245 45.7527C37.2471 46.1073 37.6238 46.5455 38.1655 46.3978C38.7417 46.2402 38.7121 45.637 38.7909 45.1716C39.3942 41.5817 40.8641 40.1757 44.5772 39.9344C46.2417 39.8261 47.9308 39.9393 49.5977 40.0797C52.0329 40.2841 53.6629 41.5792 54.4828 43.9134C54.6724 44.4526 54.7216 45.3464 55.4086 45.3637C56.1547 45.3809 56.2409 44.4797 56.5068 43.9134C58.452 39.7497 59.7372 35.3817 60.5227 30.8586C60.5695 30.5853 60.3134 29.7481 61.1826 30.2258C61.4362 30.6394 61.6923 31.0556 61.9459 31.4717C62.9923 33.4661 62.4457 35.3817 61.6504 37.2826C60.668 40.8356 59.0133 44.0685 56.9648 47.1168C55.1402 49.3697 53.1754 51.4774 50.8584 53.2453C50.2477 53.7107 49.6346 53.9668 48.8443 53.9347C47.458 53.8781 46.0619 53.8289 44.6831 53.9446C43.3559 54.0554 42.3415 53.5851 41.3418 52.7947C39.0913 51.0219 37.0944 48.9955 35.169 46.8878C33.2041 44.1867 31.2466 41.4807 30.1287 38.2847C29.9268 37.711 29.7274 37.1373 29.5255 36.5636C29.3408 36.4602 29.1783 36.3075 29.1389 36.1106C28.7056 34.0103 28.0087 31.9247 28.7376 29.753C29.2202 29.2557 29.1857 28.5391 29.4984 27.9704L29.4935 27.9728Z" fill="#020101"/>
<path d="M28.7326 29.7559C28.5455 32.0778 29.1192 34.311 29.523 36.5664C29.3531 37.113 29.8259 37.9995 29.0773 38.1743C28.4347 38.3245 27.9004 37.7261 27.3932 37.2066C26.7136 36.5073 26.657 35.4239 25.7952 34.8896C26.7751 33.1784 27.7551 31.4696 28.7326 29.7583V29.7559Z" fill="#DBBAA2"/>
<path d="M61.6479 37.285C61.8203 36.0515 61.9976 34.8203 62.1626 33.5867C62.2586 32.8653 62.3054 32.1463 61.9434 31.4717C63.0908 32.8555 64.2407 34.2368 65.3881 35.6206C64.4968 36.342 64.3613 37.6347 63.3518 38.2749C62.9357 38.5383 62.7092 39.2401 62.0665 38.952C61.5101 38.7033 61.7341 38.1074 61.6849 37.6445C61.6726 37.5239 61.6603 37.4032 61.6479 37.2826V37.285Z" fill="#D8B9A3"/>
<path d="M45.1484 42.1827C46.3771 42.6432 47.8347 42.0941 49.2899 42.2123C51.4911 42.392 53.1014 43.798 53.36 45.7825C53.6431 47.9542 52.4957 49.9117 50.4964 50.6676C49.2727 51.1305 48.8344 50.8818 48.5906 49.5818C48.3616 48.358 47.4334 47.6194 46.2515 47.7252C45.173 47.8213 44.7864 48.3703 44.7741 49.8255C44.7643 51.0837 44.4048 51.3152 43.1884 50.8572C41.1152 50.0791 39.9038 47.9148 40.3298 45.753C40.773 43.5 42.4867 42.1679 45.1459 42.1803L45.1484 42.1827Z" fill="#E0BBA4"/>
</svg>
