<svg width="387" height="424" viewBox="0 0 387 424" fill="none" xmlns="http://www.w3.org/2000/svg">
<path d="M382.96 330.67C382.57 331.17 382.17 331.67 381.77 332.17C346.42 376.17 296.12 407.64 238.57 418.85C222.34 421.79 206.32 423.29 190.5 423.35C119.19 423.02 55.12 392.05 10.77 342.94C9.37996 341.4 8.00998 339.85 6.66998 338.27C6.31998 338.02 6.05996 337.71 5.89996 337.37C5.41996 336.82 4.96 336.27 4.5 335.71C4.59 334.34 5.52001 332.94 7.07001 331.94C9.63001 330.29 11.04 328.22 11.05 325C11.08 319.26 15.77 314.58 21.71 313.99C23.86 313.77 26.04 314.01 28.19 313.74C29.84 313.52 31.05 312.76 31.06 310.91C31.07 309.15 30.1 308.17 28.39 307.85C27.25 307.64 26.07 307.64 24.93 307.42C23 307.05 21.38 306.23 21.14 304.07C20.9 301.97 22.12 300.34 23.91 299.78C27.96 298.5 31.17 296.18 34.39 293.46C37.33 290.98 41.42 292.02 45.04 291.99C54.33 291.91 54.32 291.95 54.34 282.61C54.34 279.96 54.18 277.29 54.57 274.65C54.86 272.71 55.74 271.16 57.8 270.67C59.59 270.24 61.22 270.82 62.23 272.28C68.29 281.07 77.66 286.32 85.1 293.63C86.32 294.84 87.69 295.68 89.38 296C90.2 296.16 91.13 296.19 91.77 296.67C102.62 304.74 116.67 305.84 127.83 313.22C129.52 314.34 131.5 314.75 133.52 314.86C137.41 315.07 141.08 315.94 144.33 318.23C145.57 319.11 147.01 319.76 148.52 319.66C158.21 318.96 167.57 322.19 177.23 321.96C180.07 321.9 182.9 322.59 185.36 324.07C188.86 326.16 192.22 325.93 195.83 324.35C199.66 322.68 203.8 322.3 207.95 321.76C220.79 320.08 233.53 317.82 245.07 311.41C248.42 309.55 252.48 309.71 255.77 307.5C257.45 306.38 258.71 308.07 259.06 309.49C260.04 313.49 262.85 313.9 266.3 313.92C278.41 314.01 278.4 314.08 277.99 301.97C277.92 299.94 277.67 298.01 276.55 296.26C275.06 293.94 276.3 292.19 277.79 290.49C279.42 288.62 280.86 289.54 282.59 290.49C287.57 293.2 292.99 291.77 298.23 291.7C300.02 291.68 300.71 290.21 300.73 288.54C300.75 286.93 300.27 285.59 298.52 285.07C297.39 284.74 296.21 284.75 295.08 284.48C290.64 283.42 290.43 281.89 292.39 277.8C295.52 271.31 300.3 269.03 307.21 269.99C309.66 270.33 312.2 269.96 314.69 270.06C318.84 270.23 322.5 270.27 323.84 264.87C324.54 262.05 327.67 261.98 330.41 264.37C335.42 268.74 338.03 274.31 338.43 280.94C338.49 281.93 338.58 282.92 338.62 283.92C338.89 291.9 341.8 294.1 349.6 291.22C353.34 289.84 355.79 290.77 357.96 293.27C360.15 295.79 362.65 297.93 365.06 300.2C368.68 303.59 372.3 307.05 372.92 312.5C373.21 315.01 375.01 317.03 376.48 319C379.2 322.65 381.69 326.36 382.96 330.67Z" fill="black"/>
<path d="M10.7699 342.94C9.3799 341.4 8.00992 339.85 6.66992 338.27C6.92992 338.48 7.23992 338.65 7.60992 338.79C10.0699 339.72 10.6499 341.16 10.7699 342.94Z" fill="black"/>
<path d="M386.39 326.21C385.27 327.71 384.13 329.2 382.96 330.67C382.57 331.17 382.17 331.67 381.77 332.17C381.7 331.71 381.64 331.26 381.56 330.81C380.56 325.15 375.85 321.72 373.42 316.94C372.82 315.77 371.6 314.69 371.53 313.51C371.08 306.22 366.07 302.54 360.72 298.84C358.22 297.12 357.64 293.43 354.51 292C353.41 291.49 352.76 290.52 351.76 292.07C350.81 293.54 349.17 293.33 347.68 293.33C335.75 293.31 337.28 294.21 337.27 283.47C337.26 276.37 334.95 270.26 329.69 265.35C328.6 264.33 327.58 263.02 325.85 263.8C324.42 264.44 324.21 265.82 324.3 267.19C324.57 270.99 322.28 271.5 319.21 271.44C313.06 271.34 306.91 271.45 300.75 271.4C298.32 271.37 296.47 271.83 296.27 274.76C296.13 276.79 294.4 277.85 293.11 279.07C290.8 281.25 291.69 282.46 294.23 283.13C295.33 283.42 296.55 283.45 297.69 283.34C301.64 282.99 302.41 285.13 302.39 288.53C302.37 291.81 301.42 293.52 297.83 293.37C293.67 293.2 289.51 293.32 285.35 293.33C283.99 293.34 282.71 293.22 281.76 292.03C281.02 291.09 280.61 288.5 278.87 291.23C277.98 292.62 275.15 293.56 278.08 295.92C279.69 297.21 279.96 312.12 278.89 313.82C278.18 314.94 277.11 315.23 275.89 315.23C273.9 315.24 271.9 315.28 269.9 315.24C264.29 315.13 257.21 317.6 257.48 308.26C250.37 311.13 243.71 313.84 237.03 316.51C229.64 319.46 221.75 320.49 214.14 322.58C210.18 323.67 206.17 322.44 202.31 323.75C199.66 324.65 196.95 325.19 194.37 326.48C191.79 327.77 188.47 328.09 185.92 325.99C183.43 323.94 180.51 323.41 177.6 323.3C169.99 323.02 162.41 322.79 155.03 320.6C154.17 320.34 153.12 320.8 152.15 320.87C150.5 320.99 148.18 321.82 147.31 321.05C140.54 315.05 130.97 317.36 123.5 312.38C117.85 308.61 110.53 306.94 104.24 303.67C103.16 303.11 101.95 303.19 100.86 303.72C98.47 304.87 97.02 303.56 95.93 301.75C94.96 300.12 93.88 298.32 92.04 298.12C83.54 297.22 79.83 289.43 73.47 285.46C68.48 282.34 64.27 278.06 61.29 272.8C60.53 271.47 59.19 271.25 57.79 271.61C56.25 272.02 55.74 273.21 55.73 274.64C55.71 279.12 55.54 283.61 55.76 288.09C55.94 291.88 54.67 293.66 50.65 293.38C47.34 293.14 44 293.35 40.67 293.33C37.07 293.3 33.71 293.36 32.3 297.77C31.58 300.04 28.83 299.38 27.04 299.97C24.79 300.71 21.91 300.89 22.04 303.77C22.19 307.25 25.4 306.15 27.53 306.25C30.12 306.36 32.59 306.13 32.78 309.86C32.97 313.52 32.01 315.65 27.84 315.27C22.03 314.74 16.59 315.09 13.09 320.96C12.33 322.23 11.96 322.99 12.3 324.43C13.23 328.33 11.58 331.09 8.12 332.97C6.02 334.11 5.18996 335.98 5.89996 337.37C5.41996 336.82 4.96 336.27 4.5 335.71C3.22 334.18 1.95996 332.63 0.709961 331.07C3.07996 325.56 5.71 320.16 8.75 314.92C21.21 293.44 38.03 276.16 58.62 262.41C60.37 261.29 61.54 262.33 62.34 263.64C62.61 264.07 62.87 264.5 63.15 264.91C63.15 264.92 63.15 264.93 63.15 264.93C74.73 282.9 93.08 292.04 111.48 301.05C127.54 308.92 144.78 313.3 162.22 316.6C164.97 317.12 167.76 317.5 170.58 317.75C171.37 317.81 172.15 317.87 172.94 317.92C176.79 318.16 180.69 318.16 184.56 317.97C185.5 317.92 186.44 317.89 187.38 317.88H187.48C189.9 317.83 192.33 317.87 194.75 317.91H194.89C200.41 318 205.94 318.09 211.45 317.22C229.48 314.36 245.92 307.87 260.36 296.5C274.89 285.05 288.05 272.22 300.1 258.23C301.74 256.32 302.73 253.99 303.59 251.66C303.92 250.76 304.19 250.03 304.44 249.44C305.57 246.75 306.27 247.01 310.24 248.52C344.27 264.36 368.94 289.52 385.02 323.24C385.49 324.22 385.94 325.21 386.38 326.21H386.39Z" fill="black"/>
<path d="M62.6399 256.34C64.3799 252.83 67.7899 251.27 70.9499 249.55C80.1499 244.56 89.6099 240.16 99.6399 237.02C107.83 234.46 110.89 230.24 110.99 221.65C111.1 211.68 108.13 202.33 104.52 193.22C92.3098 162.41 86.2099 130.6 88.4799 97.3999C90.0099 75.0399 95.0099 53.6699 109.47 35.7899C123.92 17.9299 142.97 7.51993 165.53 3.38993C168.56 1.35993 172.37 2.03993 175.56 0.569929C182.54 0.539929 189.63 -0.290072 196.47 0.709928C203.21 1.68993 209.75 4.29993 216.26 6.54993C244.57 16.3199 266.2 33.5699 276.08 62.6299C282.95 82.8499 284.04 103.96 281.73 125.09C278.81 151.68 272.69 177.67 265.35 203.36C263.93 208.33 262.75 213.32 263.07 218.53C263.48 225.27 265.96 228.41 272.68 229.69C281.26 231.32 289.35 234.14 296.91 238.47C299.48 239.94 302.16 241.36 303.39 244.34C305.81 249.44 303.82 254.01 300.76 257.73C290.1 270.7 277.94 282.25 265.16 293.13C257.95 299.27 250.16 304.52 241.51 308.53C223.83 316.72 205.2 319.44 185.92 318.56C176.84 318.14 167.72 317.92 158.75 316.16C130.32 310.56 103.72 300.55 80.2299 283.29C74.2299 278.88 68.6199 273.98 64.5699 267.5C62.3299 263.92 61.0798 260.44 62.6498 256.34H62.6399Z" fill="black"/>
<path d="M62.6401 256.34C62.3301 265.62 67.8701 271.91 74.2601 277.29C89.9601 290.51 107.83 299.87 127.31 306.49C145.33 312.62 163.63 316.12 182.66 317.6C195.3 318.58 207.57 317.4 219.53 314.9C235.39 311.58 249.87 304.68 262.64 293.93C274.24 284.16 284.58 273.23 295.44 262.77C300.62 257.78 304.2 251.97 303.38 244.34L310.24 248.51C307.39 247.92 305.58 247.63 304.8 251.83C303.69 257.81 298.85 262.07 294.78 266.35C283.23 278.48 271.39 290.39 257.77 300.2C247.14 307.85 235.19 312.89 222.4 316.37C206.17 320.78 189.74 319.48 173.45 318.95C157.98 318.44 142.99 314.13 128.25 309.14C110.87 303.26 94.7801 294.94 79.9301 284.35C72.4301 279 65.5901 272.68 61.4501 264.11C60.8601 262.89 59.8101 262.56 58.6201 262.4C60.8501 260.97 61.2301 258.31 62.6401 256.33V256.34Z" fill="#131313"/>
<path d="M175.56 0.580009C172.78 3.52001 169.15 3.44001 165.53 3.40001C168.16 -0.0799913 171.89 0.350009 175.56 0.580009Z" fill="#323232"/>
<path d="M254.44 157.84C250.34 169.75 246.28 181.64 239.94 192.66C230.63 208.84 218.65 222.68 204.28 234.49C195.33 241.84 183.57 242.47 173.7 235.75C149.28 219.12 131.51 197.09 120.7 169.55C119.8 167.25 119.33 164.74 117.53 162.86C115.71 158.93 114.51 154.71 113.73 150.54C112.14 142.08 115.99 135.35 122.07 129.82C131.4 121.35 142.78 116.03 153.7 110.1C175.31 98.38 194.94 84.07 212.49 66.88C214.31 65.09 215.9 62.06 218.91 62.93C221.94 63.81 221.65 67.2 222.14 69.71C225.68 87.61 234.72 101.88 249.6 112.65C256.15 117.4 260.94 123.5 259.19 132.49C258.61 137.56 258.07 142.62 257.39 147.67C256.48 151.08 255.58 154.49 254.44 157.83V157.84Z" fill="#FEE7DA"/>
<path d="M258.18 131.74C259.57 123.91 255.28 118.38 249.66 114.44C232.85 102.65 223.68 86.4699 220.18 66.6399C219.97 65.4499 220.25 63.7499 218.57 63.3599C217.47 63.0999 216.85 64.2099 216.19 64.8999C193.78 88.4099 166.69 105.31 138.12 120.19C131.2 123.79 124.59 128.05 119.64 134.3C115.06 140.08 112.73 146.23 115.9 153.67C117.1 156.49 118.04 159.62 117.54 162.87C110 156.16 106.14 147.17 102.58 138.12C88.4598 102.24 102.93 61.2199 129.94 39.2699C159.77 15.0299 192.84 11.8299 227.36 27.5999C245.63 35.9399 256.43 51.8299 263.39 70.2299C273.02 95.6999 269.11 120.72 260.37 145.48C258.85 149.79 257.23 154.11 254.45 157.85C254.89 154.45 254.57 150.92 256.21 147.73C259 142.67 258.47 137.19 258.18 131.75V131.74Z" fill="#8D594F"/>
<path d="M258.18 131.74C260.77 137.3 259.8 145.19 256.21 147.72C256.87 142.39 257.52 137.07 258.18 131.74Z" fill="#53372B"/>
</svg>
